<?xml version="1.0" encoding="UTF-8" standalone="no"?>
<svg
        xmlns:dc="http://purl.org/dc/elements/1.1/"
        xmlns:cc="http://creativecommons.org/ns#"
        xmlns:rdf="http://www.w3.org/1999/02/22-rdf-syntax-ns#"
        xmlns:svg="http://www.w3.org/2000/svg"
        xmlns="http://www.w3.org/2000/svg"
        xmlns:sodipodi="http://sodipodi.sourceforge.net/DTD/sodipodi-0.dtd"
        xmlns:inkscape="http://www.inkscape.org/namespaces/inkscape"
        id="Layer_1"
        data-name="Layer 1"
        viewBox="0 0 163.87123 41.919163"
        version="1.1"
        sodipodi:docname="OB-Publisher-logo-Light-background.svg"
        width="163.87123"
        height="41.919163"
        inkscape:version="0.92.2 5c3e80d, 2017-08-06">
    <metadata
            id="metadata61">
        <rdf:RDF>
            <cc:Work
                    rdf:about="">
                <dc:format>image/svg+xml</dc:format>
                <dc:type
                        rdf:resource="http://purl.org/dc/dcmitype/StillImage"/>
                <dc:title>OB-Publisher-logo-Dark-background</dc:title>
            </cc:Work>
        </rdf:RDF>
    </metadata>
    <sodipodi:namedview
            pagecolor="#ffffff"
            bordercolor="#666666"
            borderopacity="1"
            objecttolerance="10"
            gridtolerance="10"
            guidetolerance="10"
            inkscape:pageopacity="0"
            inkscape:pageshadow="2"
            inkscape:window-width="1246"
            inkscape:window-height="574"
            id="namedview59"
            showgrid="false"
            fit-margin-top="0"
            fit-margin-left="0"
            fit-margin-right="0"
            fit-margin-bottom="0"
            inkscape:zoom="1.3103448"
            inkscape:cx="129.50511"
            inkscape:cy="21.778481"
            inkscape:window-x="0"
            inkscape:window-y="0"
            inkscape:window-maximized="0"
            inkscape:current-layer="Layer_1"/>
    <defs
            id="defs4">
        <style
                id="style2">.cls-1{fill:#010101;}.cls-2{fill:#ef4023;}.cls-3{fill:#fff;}
        </style>
    </defs>
    <title
            id="title6">OB-Publisher-logo-Dark-background
    </title>
    <path
            class="cls-1"
            d="m 3.9051057,36.030682 a 7.68,7.68 0 0 1 -2.9,-3.3 11.55,11.55 0 0 1 -1.00000004,-5 11.7,11.7 0 0 1 1.00000004,-5.09 7.4,7.4 0 0 1 2.88,-3.3 8.52,8.52 0 0 1 4.51,-1.15 8.56,8.56 0 0 1 4.5200003,1.15 7.4,7.4 0 0 1 2.93,3.3 11.77,11.77 0 0 1 1,5 11.5,11.5 0 0 1 -1,5 7.63,7.63 0 0 1 -2.93,3.31 8.54,8.54 0 0 1 -4.5000003,1.16 8.5,8.5 0 0 1 -4.51,-1.08 z m 9.1000003,-2.68 a 8.66,8.66 0 0 0 1.64,-5.71 8.68,8.68 0 0 0 -1.64,-5.63 5.62,5.62 0 0 0 -4.6100003,-2 5.64,5.64 0 0 0 -4.59,2 8.63,8.63 0 0 0 -1.65,5.63 8.67,8.67 0 0 0 1.65,5.7 5.59,5.59 0 0 0 4.59,2 5.63,5.63 0 0 0 4.6100003,-1.99 z"
            id="path8"
            inkscape:connector-curvature="0"
            style="fill:#010101"/>
    <path
            class="cls-1"
            d="m 29.875106,24.640682 a 5.53,5.53 0 0 1 2,2.36 8.11,8.11 0 0 1 0.71,3.52 7.94,7.94 0 0 1 -0.71,3.49 5.28,5.28 0 0 1 -5,3.12 5.07,5.07 0 0 1 -2.62,-0.66 4.23,4.23 0 0 1 -1.68,-1.83 v 7.09 h -2.13 v -17.59 h 2.13 v 2.22 a 4.23,4.23 0 0 1 1.7,-1.87 5.07,5.07 0 0 1 2.62,-0.66 5.35,5.35 0 0 1 2.98,0.81 z m -0.5,9.46 a 5.57,5.57 0 0 0 1,-3.58 5.76,5.76 0 0 0 -1,-3.63 3.48,3.48 0 0 0 -2.9,-1.3 3.5,3.5 0 0 0 -2.89,1.26 5.7,5.7 0 0 0 -1,3.61 5.75,5.75 0 0 0 1,3.63 3.49,3.49 0 0 0 2.89,1.28 3.54,3.54 0 0 0 2.9,-1.24 z"
            id="path10"
            inkscape:connector-curvature="0"
            style="fill:#010101"/>
    <path
            class="cls-1"
            d="m 46.525106,30.890682 h -9.38 a 5.07,5.07 0 0 0 1.21,3.39 4.19,4.19 0 0 0 3.14,1.14 6.36,6.36 0 0 0 4.11,-1.53 l 0.71,1.56 a 6.12,6.12 0 0 1 -2.16,1.25 8.05,8.05 0 0 1 -2.69,0.46 6.34,6.34 0 0 1 -4.73,-1.76 6.7,6.7 0 0 1 -1.73,-4.88 7.63,7.63 0 0 1 0.76,-3.49 5.72,5.72 0 0 1 2.16,-2.39 5.94,5.94 0 0 1 3.15,-0.84 5,5 0 0 1 4,1.67 6.78,6.78 0 0 1 1.45,4.6 z m -8.13,-4.35 a 4.9,4.9 0 0 0 -1.2,3 h 7.46 a 4.55,4.55 0 0 0 -1,-3 3.23,3.23 0 0 0 -2.58,-1 3.59,3.59 0 0 0 -2.68,1 z"
            id="path12"
            inkscape:connector-curvature="0"
            style="fill:#010101"/>
    <path
            class="cls-1"
            d="m 60.725106,28.910682 v 8.07 h -2.13 v -7.93 a 3.94,3.94 0 0 0 -0.7,-2.61 2.77,2.77 0 0 0 -2.23,-0.8 3.78,3.78 0 0 0 -2.82,1.08 4,4 0 0 0 -1.05,2.92 v 7.36 h -2.13 v -12.86 h 2.1 v 2.11 a 4.33,4.33 0 0 1 1.77,-1.8 5.21,5.21 0 0 1 2.58,-0.62 c 3.08,0 4.61,1.69 4.61,5.08 z"
            id="path14"
            inkscape:connector-curvature="0"
            style="fill:#010101"/>
    <path
            class="cls-1"
            d="m 84.775106,29.020682 a 4.7,4.7 0 0 1 0.88,2.9 4.56,4.56 0 0 1 -1.65,3.72 7.06,7.06 0 0 1 -4.56,1.31 h -7.7 v -18.55 h 7.45 a 7,7 0 0 1 4.46,1.24 4.35,4.35 0 0 1 1.58,3.59 4.29,4.29 0 0 1 -0.78,2.58 4.59,4.59 0 0 1 -2.17,1.61 4.44,4.44 0 0 1 2.49,1.6 z m -10.9,-2.38 h 5 a 5,5 0 0 0 3.13,-0.84 2.93,2.93 0 0 0 1.06,-2.45 c 0,-2.1 -1.4,-3.16 -4.21,-3.16 h -5 z m 8.63,7.73 a 3,3 0 0 0 1,-2.52 q 0,-3.42 -4.27,-3.42 h -5.4 v 6.74 h 5.4 a 5.24,5.24 0 0 0 3.27,-0.79 z"
            id="path16"
            inkscape:connector-curvature="0"
            style="fill:#010101"/>
    <path
            class="cls-1"
            d="m 98.055106,25.080682 a 5.35,5.35 0 0 1 1.19,3.81 v 8.09 h -2.08 v -2.19 a 3.77,3.77 0 0 1 -1.52,1.75 4.56,4.56 0 0 1 -2.38,0.62 5.28,5.28 0 0 1 -2.26,-0.52 4,4 0 0 1 -1.64,-1.4 3.38,3.38 0 0 1 -0.61,-2 3.24,3.24 0 0 1 0.74,-2.26 4.46,4.46 0 0 1 2.42,-1.15 23.73,23.73 0 0 1 4.69,-0.36 h 0.58 v -0.83 a 3.4,3.4 0 0 0 -0.66,-2.33 2.72,2.72 0 0 0 -2.15,-0.67 8.24,8.24 0 0 0 -4.37,1.32 l -0.71,-1.55 a 8.3,8.3 0 0 1 2.41,-1.15 9.23,9.23 0 0 1 2.73,-0.43 4.86,4.86 0 0 1 3.62,1.25 z m -1.9,9.33 a 3.86,3.86 0 0 0 1,-2.76 v -0.76 h -0.47 a 23.73,23.73 0 0 0 -3.53,0.2 3.39,3.39 0 0 0 -1.73,0.66 1.72,1.72 0 0 0 -0.51,1.35 2.18,2.18 0 0 0 0.75,1.7 2.71,2.71 0 0 0 1.88,0.67 3.43,3.43 0 0 0 2.61,-1.06 z"
            id="path18"
            inkscape:connector-curvature="0"
            style="fill:#010101"/>
    <path
            class="cls-1"
            d="m 114.21511,28.910682 v 8.07 h -2.13 v -7.93 a 4,4 0 0 0 -0.7,-2.61 2.77,2.77 0 0 0 -2.23,-0.82 3.77,3.77 0 0 0 -2.82,1.08 4,4 0 0 0 -1,2.92 v 7.36 h -2.14 v -12.84 h 2.11 v 2.11 a 4.27,4.27 0 0 1 1.77,-1.8 5.19,5.19 0 0 1 2.58,-0.62 q 4.56,0 4.56,5.08 z"
            id="path20"
            inkscape:connector-curvature="0"
            style="fill:#010101"/>
    <path
            class="cls-1"
            d="m 129.55511,36.980682 h -2.77 l -6.54,-6.14 v 6.14 h -2.13 v -18.58 h 2.13 v 11.57 l 6,-5.8 h 2.71 l -6.38,6.14 z"
            id="path22"
            inkscape:connector-curvature="0"
            style="fill:#010101"/>
    <path
            class="cls-1"
            d="m 131.07511,18.580682 h 2.59 v 2.4 h -2.59 z m 0.22,18.4 v -12.84 h 2.13 v 12.84 z"
            id="path24"
            inkscape:connector-curvature="0"
            style="fill:#010101"/>
    <path
            class="cls-1"
            d="m 148.46511,28.910682 v 8.07 h -2.13 v -7.93 a 3.94,3.94 0 0 0 -0.7,-2.61 2.75,2.75 0 0 0 -2.22,-0.82 3.75,3.75 0 0 0 -2.82,1.08 4,4 0 0 0 -1.06,2.94 v 7.36 h -2.13 v -12.86 h 2.11 v 2.11 a 4.3,4.3 0 0 1 1.76,-1.8 5.24,5.24 0 0 1 2.58,-0.62 c 3.08,0 4.61,1.69 4.61,5.08 z"
            id="path26"
            inkscape:connector-curvature="0"
            style="fill:#010101"/>
    <path
            class="cls-1"
            d="m 163.85511,24.140682 v 12 a 5.85,5.85 0 0 1 -1.47,4.33 6,6 0 0 1 -4.38,1.43 9.08,9.08 0 0 1 -5.66,-1.74 l 0.71,-1.58 a 10.36,10.36 0 0 0 2.42,1.22 8.36,8.36 0 0 0 2.53,0.36 3.72,3.72 0 0 0 2.8,-1 4,4 0 0 0 0.94,-2.89 v -2.25 a 4,4 0 0 1 -1.69,1.9 5.36,5.36 0 0 1 -2.71,0.66 5.64,5.64 0 0 1 -3,-0.79 5.39,5.39 0 0 1 -2,-2.24 8.13,8.13 0 0 1 0,-6.69 5.39,5.39 0 0 1 2,-2.24 5.64,5.64 0 0 1 3,-0.79 5.23,5.23 0 0 1 2.67,0.66 4.25,4.25 0 0 1 1.71,1.87 v -2.22 z m -3.19,9.5 a 5,5 0 0 0 1.06,-3.39 5.06,5.06 0 0 0 -1,-3.36 3.65,3.65 0 0 0 -2.95,-1.25 3.71,3.71 0 0 0 -2.94,1.22 5,5 0 0 0 -1.07,3.36 5,5 0 0 0 1.07,3.42 3.68,3.68 0 0 0 2.94,1.23 3.59,3.59 0 0 0 2.89,-1.23 z"
            id="path28"
            inkscape:connector-curvature="0"
            style="fill:#010101"/>
    <polygon
            class="cls-1"
            points="47.97,11.92 43.45,11.91 43.46,11.04 47.4,11.05 49.82,5.68 52.5,12.22 53.58,10.29 56.16,10.27 56.16,11.14 54.09,11.15 52.38,14.22 49.78,7.88 "
            id="polygon30"
            style="fill:#010101"
            transform="translate(-0.99489434,-3.3593181)"/>
    <path
            class="cls-1"
            d="m 33.595106,0.86068187 h 0.54 l -0.54,1.34000003 z m 0,11.34000013 a 3.84,3.84 0 0 0 0.89,1.06 3.94,3.94 0 0 0 2.65,0.88 4,4 0 0 0 2.87,-1.17 3.86,3.86 0 0 0 1.19,-2.85 2.79,2.79 0 0 0 -1,-2.2900001 9,9 0 0 0 -2,-1.27 l -0.37,-0.18 -0.36,-0.16 a 16.51,16.51 0 0 1 -1.64,-0.95 1.52,1.52 0 0 1 -0.65,-1.32 1.73,1.73 0 0 1 0.66,-1.4 2.43,2.43 0 0 1 1.59,-0.54 2.1,2.1 0 0 1 1,0.24 2.63,2.63 0 0 1 0.82,0.76 l 0.14,0.22 a 0.68,0.68 0 0 1 0.16,0.19 l 1.21,-0.78 a 4.1,4.1 0 0 0 -1.42,-1.52 3.43,3.43 0 0 0 -1.83,-0.48000003 4,4 0 0 0 -2.72,0.94000003 3.1,3.1 0 0 0 -1.06,2.41 2.58,2.58 0 0 0 1,2.15 10.07,10.07 0 0 0 2.06,1.24 l 0.24,0.12 0.23,0.1 a 14.36,14.36 0 0 1 1.75,1.04 1.69,1.69 0 0 1 0.74,1.5000001 2.56,2.56 0 0 1 -0.74,1.89 2.59,2.59 0 0 1 -1.91,0.75 2.37,2.37 0 0 1 -1.68,-0.62 3.45,3.45 0 0 1 -0.94,-1.8 l -0.88,0.26 z m -12.84,-1.56 4.09,-10.47000013 3.86,10.47000013 3.84,-9.79000013 h 1.05 V 2.2006819 l -4.93,12.4400001 -3.86,-10.5100001 -4.11,10.4500001 -5,-13.72000013 h 1.59 z m 12.84,0 -0.54,0.17 a 5.59,5.59 0 0 0 0.54,1.41 z"
            id="path32"
            inkscape:connector-curvature="0"
            style="fill:#010101"/>
    <path
            class="cls-1"
            d="m 48.815106,6.818652e-4 a 7.29,7.29 0 0 1 5.25,2.1300000348 7.11,7.11 0 0 1 2.15,5.25 7.1,7.1 0 0 1 -2.15,5.2600001 7.1,7.1 0 0 1 -5.24,2.15 v 0 -1.39 a 5.93,5.93 0 0 0 3,-0.79 5.63,5.63 0 0 0 2.18,-2.17 6.12,6.12 0 0 0 0.79,-3.0600001 6,6 0 0 0 -0.79,-3 5.68,5.68 0 0 0 -2.19,-2.16 5.87,5.87 0 0 0 -3,-0.81 z m -0.1,0 h 0.1 V 1.3806819 v 0 a 5.78,5.78 0 0 0 -3,0.81 6,6 0 0 0 -2.18,2.19 6.12,6.12 0 0 0 -0.78,3.07 5.89,5.89 0 0 0 5.92,6.0000001 v 0 1.37 a 7.18,7.18 0 0 1 -5.22,-2.18 7,7 0 0 1 -2.15,-5.1800001 7.53,7.53 0 0 1 1,-3.76 7.26,7.26 0 0 1 6.34,-3.69000003 z"
            id="path34"
            inkscape:connector-curvature="0"
            style="fill:#010101"/>
    <path
            class="cls-1"
            d="m 56.705106,6.9306819 a 4,4 0 0 1 1.06,-0.14 3.23,3.23 0 0 1 3.33,3.2400001 3.47,3.47 0 0 1 -0.44,1.72 12.2,12.2 0 0 1 -1.71,2.18 l -2.69,2.91 h 5 v 1.05 h -7.36 l 4.11,-4.48 a 12.34,12.34 0 0 0 1.63,-2 2.6,2.6 0 0 0 0.37,-1.36 2.12,2.12 0 0 0 -0.68,-1.5700001 2.34,2.34 0 0 0 -1.67,-0.66 2.42,2.42 0 0 0 -1,0.21 7.14,7.14 0 0 0 0,-0.8 c 0.06,-0.1 0.06,-0.2 0.05,-0.3 z"
            id="path36"
            inkscape:connector-curvature="0"
            style="fill:#010101"/>
</svg>
