<?xml version="1.0" encoding="UTF-8" standalone="no"?>
<!-- Created with Inkscape (http://www.inkscape.org/) -->

<svg
        xmlns:dc="http://purl.org/dc/elements/1.1/"
        xmlns:cc="http://creativecommons.org/ns#"
        xmlns:rdf="http://www.w3.org/1999/02/22-rdf-syntax-ns#"
        xmlns:svg="http://www.w3.org/2000/svg"
        xmlns="http://www.w3.org/2000/svg"
        xmlns:xlink="http://www.w3.org/1999/xlink"
        xmlns:sodipodi="http://sodipodi.sourceforge.net/DTD/sodipodi-0.dtd"
        xmlns:inkscape="http://www.inkscape.org/namespaces/inkscape"
        width="74.877083mm"
        height="16.750732mm"
        viewBox="0 0 74.877083 16.750732"
        version="1.1"
        id="svg8"
        inkscape:version="0.92.2 5c3e80d, 2017-08-06"
        sodipodi:docname="login-back.svg">
    <defs
            id="defs2">
        <linearGradient
                inkscape:collect="always"
                id="linearGradient8145">
            <stop
                    style="stop-color:#202065;stop-opacity:0.471"
                    offset="0"
                    id="stop8141"/>
            <stop
                    style="stop-color:#00b4ff;stop-opacity:0.584"
                    offset="1"
                    id="stop8143"/>
        </linearGradient>
        <style
                id="style8109">.cls-1{fill:#fff;}
        </style>
        <linearGradient
                inkscape:collect="always"
                xlink:href="#linearGradient8145"
                id="linearGradient8256"
                gradientUnits="userSpaceOnUse"
                gradientTransform="matrix(0.26458333,0,0,0.26458333,-677.62884,186.34455)"
                x1="-24"
                y1="54.714844"
                x2="-306.99997"
                y2="149.51971"/>
        <linearGradient
                inkscape:collect="always"
                xlink:href="#linearGradient8145"
                id="linearGradient8258"
                gradientUnits="userSpaceOnUse"
                gradientTransform="matrix(0.26458333,0,0,0.26458333,-677.62884,186.34455)"
                x1="-24"
                y1="54.714844"
                x2="-306.99997"
                y2="149.51971"/>
        <linearGradient
                inkscape:collect="always"
                xlink:href="#linearGradient8145"
                id="linearGradient8260"
                gradientUnits="userSpaceOnUse"
                gradientTransform="matrix(0.26458333,0,0,0.26458333,-677.62884,186.34455)"
                x1="-24"
                y1="86.714645"
                x2="-140.99997"
                y2="127.51971"/>
        <linearGradient
                inkscape:collect="always"
                xlink:href="#linearGradient8145"
                id="linearGradient8262"
                gradientUnits="userSpaceOnUse"
                gradientTransform="matrix(0.26458333,0,0,0.26458333,-677.62884,186.34455)"
                x1="-21.774136"
                y1="73.093681"
                x2="-306.99997"
                y2="149.51971"/>
    </defs>
    <sodipodi:namedview
            id="base"
            pagecolor="#ffffff"
            bordercolor="#666666"
            borderopacity="1.0"
            inkscape:pageopacity="0.0"
            inkscape:pageshadow="2"
            inkscape:zoom="1.4142136"
            inkscape:cx="199.04267"
            inkscape:cy="-44.422016"
            inkscape:document-units="mm"
            inkscape:current-layer="layer1"
            showgrid="false"
            inkscape:window-width="1440"
            inkscape:window-height="807"
            inkscape:window-x="0"
            inkscape:window-y="1"
            inkscape:window-maximized="1"
            fit-margin-top="0"
            fit-margin-left="0"
            fit-margin-right="0"
            fit-margin-bottom="0"/>
    <metadata
            id="metadata5">
        <rdf:RDF>
            <cc:Work
                    rdf:about="">
                <dc:format>image/svg+xml</dc:format>
                <dc:type
                        rdf:resource="http://purl.org/dc/dcmitype/StillImage"/>
                <dc:title></dc:title>
            </cc:Work>
        </rdf:RDF>
    </metadata>
    <g
            inkscape:label="Layer 1"
            inkscape:groupmode="layer"
            id="layer1"
            transform="translate(758.85592,-209.15425)">
        <g
                id="g8268"
                transform="matrix(1,0,0,0.59552198,0,91.373598)"
                style="opacity:0.473">
            <path
                    style="opacity:0.70200004;fill:url(#linearGradient8256);fill-opacity:1;stroke:none;stroke-width:0.26458332px;stroke-linecap:butt;stroke-linejoin:miter;stroke-opacity:1"
                    d="m -703.04301,197.77735 c -2.82003,0.008 -8.03115,1.15039 -9.67516,1.63721 -7.96616,2.35891 -15.22027,7.96954 -25.27443,9.02787 -10.05417,1.05833 -20.10833,-0.52917 -20.10833,-0.52917 l -0.75499,0.0909 -4.11595,17.84225 c -0.66215,2.87034 2.47846,5.63737 5.55625,5.55625 l 70.03205,-1.84568 c 3.07778,-0.0811 5.83855,-2.51481 5.55625,-5.55625 l -2.15152,-23.17959 c -6.67301,-1.09146 -12.56368,-3.06283 -19.06417,-3.04384 z"
                    id="path8248"
                    inkscape:connector-curvature="0"
                    sodipodi:nodetypes="cssccsssscsc"/>
            <path
                    sodipodi:nodetypes="cssccsssscsc"
                    inkscape:connector-curvature="0"
                    id="path8250"
                    d="m -700.79795,202.45456 c -2.82003,0.008 -6.90861,-1.09467 -11.92022,-3.04 -7.74506,-3.00637 -15.22027,3.86849 -25.27443,4.92683 -10.05417,1.05833 -20.10833,-0.52917 -20.10833,-0.52917 l -0.75499,0.091 -4.11595,21.94329 c -0.55071,2.93597 2.47846,5.63737 5.55625,5.55625 l 70.03205,-1.84568 c 3.07778,-0.0811 5.83855,-2.51481 5.55625,-5.55625 l -2.15152,-23.17959 c -6.67301,-1.09146 -10.31862,1.61439 -16.81911,1.63337 z"
                    style="opacity:0.70200004;fill:url(#linearGradient8258);fill-opacity:1;stroke:none;stroke-width:0.26458332px;stroke-linecap:butt;stroke-linejoin:miter;stroke-opacity:1"/>
            <path
                    style="opacity:0.70200004;fill:url(#linearGradient8260);fill-opacity:1;stroke:none;stroke-width:0.26458332px;stroke-linecap:butt;stroke-linejoin:miter;stroke-opacity:1"
                    d="m -700.79795,210.92123 c -2.82003,0.008 -6.90861,-1.09467 -11.92022,-3.04001 -7.74506,-3.00636 -15.22027,4.66225 -25.27443,5.72058 -10.05417,1.05834 -20.10833,-0.52916 -20.10833,-0.52916 l -0.75499,0.0909 -4.11595,12.68287 c -0.87716,2.70288 2.47846,5.63737 5.55625,5.55625 l 70.03205,-1.84568 c 3.07778,-0.0811 5.99339,-2.5669 5.55625,-5.55625 l -2.15152,-14.71293 c -6.67301,-1.09146 -10.31862,1.61439 -16.81911,1.63338 z"
                    id="path8252"
                    inkscape:connector-curvature="0"
                    sodipodi:nodetypes="cssccsssscsc"/>
            <path
                    sodipodi:nodetypes="cssccsssscsc"
                    inkscape:connector-curvature="0"
                    id="path8254"
                    d="m -700.79795,216.47748 c -2.82003,0.008 -6.90861,-1.09467 -11.92022,-3.04001 -7.74506,-3.00636 -15.22027,-0.894 -25.27443,0.16433 -10.05417,1.05834 -20.10833,-0.52916 -20.10833,-0.52916 l -0.75499,0.0909 -4.11595,12.68287 c -0.87716,2.70288 2.47846,5.63737 5.55625,5.55625 l 70.03205,-1.84568 c 3.07778,-0.0811 5.55625,-5.55625 5.55625,-5.55625 l -2.15152,-9.15668 c -6.67301,-1.09146 -10.31862,1.61439 -16.81911,1.63338 z"
                    style="opacity:0.70200004;fill:url(#linearGradient8262);fill-opacity:1;stroke:none;stroke-width:0.26458332px;stroke-linecap:butt;stroke-linejoin:miter;stroke-opacity:1"/>
        </g>
    </g>
</svg>
